<mxfile host="app.diagrams.net" modified="2021-06-14T12:41:21.479Z" agent="5.0 (Macintosh; Intel Mac OS X 10_14_6) AppleWebKit/537.36 (KHTML, like Gecko) Chrome/91.0.4472.101 Safari/537.36" etag="PSfr68VjjBtLqLbeoEWm" version="14.7.3" type="github">
  <diagram id="C5RBs43oDa-KdzZeNtuy" name="Page-1">
    <mxGraphModel dx="946" dy="614" grid="1" gridSize="10" guides="1" tooltips="1" connect="1" arrows="1" fold="1" page="1" pageScale="1" pageWidth="827" pageHeight="1169" math="0" shadow="0">
      <root>
        <mxCell id="WIyWlLk6GJQsqaUBKTNV-0" />
        <mxCell id="WIyWlLk6GJQsqaUBKTNV-1" parent="WIyWlLk6GJQsqaUBKTNV-0" />
        <mxCell id="l8oqYocbX1GZS1B2UIZt-6" style="edgeStyle=orthogonalEdgeStyle;rounded=0;orthogonalLoop=1;jettySize=auto;html=1;exitX=0.5;exitY=1;exitDx=0;exitDy=0;entryX=0.5;entryY=0;entryDx=0;entryDy=0;" edge="1" parent="WIyWlLk6GJQsqaUBKTNV-1" source="WIyWlLk6GJQsqaUBKTNV-3" target="l8oqYocbX1GZS1B2UIZt-4">
          <mxGeometry relative="1" as="geometry">
            <Array as="points">
              <mxPoint x="433" y="180" />
              <mxPoint x="433" y="210" />
            </Array>
          </mxGeometry>
        </mxCell>
        <mxCell id="WIyWlLk6GJQsqaUBKTNV-3" value="Uploading &lt;font color=&quot;#ffb570&quot;&gt;Peripheral_Grab.ino&lt;/font&gt; to Movuino&amp;nbsp;" style="rounded=1;whiteSpace=wrap;html=1;fontSize=12;glass=0;strokeWidth=1;shadow=0;" parent="WIyWlLk6GJQsqaUBKTNV-1" vertex="1">
          <mxGeometry x="367.5" y="110" width="135" height="70" as="geometry" />
        </mxCell>
        <mxCell id="l8oqYocbX1GZS1B2UIZt-2" value="&lt;blockquote style=&quot;line-height: 90% ; font-size: 14px&quot;&gt;&lt;font style=&quot;font-size: 14px&quot;&gt;&lt;font style=&quot;font-size: 14px&quot; face=&quot;Lucida Console&quot;&gt;Data Collection for&amp;nbsp;&lt;br&gt;&lt;/font&gt;&lt;/font&gt;&lt;font style=&quot;font-size: 14px&quot;&gt;&lt;font style=&quot;font-size: 14px&quot; face=&quot;Lucida Console&quot;&gt;Training the TinyML Model&lt;br&gt;&lt;/font&gt;&lt;/font&gt;&lt;font style=&quot;font-size: 14px&quot;&gt;&lt;font style=&quot;font-size: 14px&quot; face=&quot;Lucida Console&quot;&gt;(IMU sensor as Example)&lt;/font&gt;&lt;/font&gt;&lt;/blockquote&gt;" style="rounded=1;whiteSpace=wrap;html=1;fillColor=#e1d5e7;strokeColor=#9673a6;labelPosition=center;verticalLabelPosition=middle;align=center;verticalAlign=middle;spacing=4;spacingTop=0;spacingLeft=0;" vertex="1" parent="WIyWlLk6GJQsqaUBKTNV-1">
          <mxGeometry x="310" width="250" height="80" as="geometry" />
        </mxCell>
        <mxCell id="l8oqYocbX1GZS1B2UIZt-4" value="IMU sensors collect information&amp;nbsp;&lt;br&gt;(Accel, Gyro)" style="rounded=0;whiteSpace=wrap;html=1;" vertex="1" parent="WIyWlLk6GJQsqaUBKTNV-1">
          <mxGeometry x="367.5" y="220" width="130" height="50" as="geometry" />
        </mxCell>
        <mxCell id="l8oqYocbX1GZS1B2UIZt-12" value="IMU Sensor:&lt;br&gt;Accelerometers,&lt;br&gt;Gyroscopes,&lt;br&gt;Magnetometer&amp;nbsp;" style="rounded=1;whiteSpace=wrap;html=1;fillColor=#f8cecc;strokeColor=#b85450;" vertex="1" parent="WIyWlLk6GJQsqaUBKTNV-1">
          <mxGeometry x="620" y="5" width="140" height="70" as="geometry" />
        </mxCell>
        <mxCell id="l8oqYocbX1GZS1B2UIZt-15" style="edgeStyle=orthogonalEdgeStyle;rounded=0;orthogonalLoop=1;jettySize=auto;html=1;entryX=1;entryY=0.5;entryDx=0;entryDy=0;" edge="1" parent="WIyWlLk6GJQsqaUBKTNV-1" source="l8oqYocbX1GZS1B2UIZt-14" target="l8oqYocbX1GZS1B2UIZt-4">
          <mxGeometry relative="1" as="geometry" />
        </mxCell>
        <mxCell id="l8oqYocbX1GZS1B2UIZt-14" value="Remember the orientation &amp;amp; position of the Movuino. These two parameters matter a lot&amp;nbsp;" style="rounded=1;whiteSpace=wrap;html=1;fillColor=#f8cecc;strokeColor=#b85450;" vertex="1" parent="WIyWlLk6GJQsqaUBKTNV-1">
          <mxGeometry x="580" y="215" width="180" height="60" as="geometry" />
        </mxCell>
        <mxCell id="l8oqYocbX1GZS1B2UIZt-16" value="2 - minutes IMU data" style="rounded=0;whiteSpace=wrap;html=1;fillColor=#f8cecc;strokeColor=#b85450;" vertex="1" parent="WIyWlLk6GJQsqaUBKTNV-1">
          <mxGeometry x="351" y="390" width="125" height="30" as="geometry" />
        </mxCell>
        <mxCell id="l8oqYocbX1GZS1B2UIZt-17" value="Loop&amp;nbsp;" style="rounded=1;whiteSpace=wrap;html=1;" vertex="1" parent="WIyWlLk6GJQsqaUBKTNV-1">
          <mxGeometry x="180" y="300" width="107.5" height="30" as="geometry" />
        </mxCell>
        <mxCell id="l8oqYocbX1GZS1B2UIZt-21" value="extract_imu_data.py" style="rounded=1;whiteSpace=wrap;html=1;" vertex="1" parent="WIyWlLk6GJQsqaUBKTNV-1">
          <mxGeometry x="590" y="300" width="130" height="25" as="geometry" />
        </mxCell>
        <mxCell id="l8oqYocbX1GZS1B2UIZt-22" value="Pyserial Package to extract data from Serial Port&amp;nbsp;" style="rounded=0;whiteSpace=wrap;html=1;fillColor=#f8cecc;strokeColor=#b85450;" vertex="1" parent="WIyWlLk6GJQsqaUBKTNV-1">
          <mxGeometry x="750" y="370" width="125" height="50" as="geometry" />
        </mxCell>
      </root>
    </mxGraphModel>
  </diagram>
</mxfile>
